%TF.GenerationSoftware,KiCad,Pcbnew,7.0.7*%
%TF.CreationDate,2023-10-17T22:15:13-05:00*%
%TF.ProjectId,Heater_North_DCT_HSK,48656174-6572-45f4-9e6f-7274685f4443,rev?*%
%TF.SameCoordinates,Original*%
%TF.FileFunction,AssemblyDrawing,Bot*%
%FSLAX46Y46*%
G04 Gerber Fmt 4.6, Leading zero omitted, Abs format (unit mm)*
G04 Created by KiCad (PCBNEW 7.0.7) date 2023-10-17 22:15:13*
%MOMM*%
%LPD*%
G01*
G04 APERTURE LIST*
%ADD10C,0.150000*%
%ADD11C,0.100000*%
%TA.AperFunction,Profile*%
%ADD12C,0.100000*%
%TD*%
G04 APERTURE END LIST*
D10*
X122857142Y-99207200D02*
X122714285Y-99254819D01*
X122714285Y-99254819D02*
X122476190Y-99254819D01*
X122476190Y-99254819D02*
X122380952Y-99207200D01*
X122380952Y-99207200D02*
X122333333Y-99159580D01*
X122333333Y-99159580D02*
X122285714Y-99064342D01*
X122285714Y-99064342D02*
X122285714Y-98969104D01*
X122285714Y-98969104D02*
X122333333Y-98873866D01*
X122333333Y-98873866D02*
X122380952Y-98826247D01*
X122380952Y-98826247D02*
X122476190Y-98778628D01*
X122476190Y-98778628D02*
X122666666Y-98731009D01*
X122666666Y-98731009D02*
X122761904Y-98683390D01*
X122761904Y-98683390D02*
X122809523Y-98635771D01*
X122809523Y-98635771D02*
X122857142Y-98540533D01*
X122857142Y-98540533D02*
X122857142Y-98445295D01*
X122857142Y-98445295D02*
X122809523Y-98350057D01*
X122809523Y-98350057D02*
X122761904Y-98302438D01*
X122761904Y-98302438D02*
X122666666Y-98254819D01*
X122666666Y-98254819D02*
X122428571Y-98254819D01*
X122428571Y-98254819D02*
X122285714Y-98302438D01*
X121857142Y-98588152D02*
X121857142Y-99588152D01*
X121857142Y-98635771D02*
X121761904Y-98588152D01*
X121761904Y-98588152D02*
X121571428Y-98588152D01*
X121571428Y-98588152D02*
X121476190Y-98635771D01*
X121476190Y-98635771D02*
X121428571Y-98683390D01*
X121428571Y-98683390D02*
X121380952Y-98778628D01*
X121380952Y-98778628D02*
X121380952Y-99064342D01*
X121380952Y-99064342D02*
X121428571Y-99159580D01*
X121428571Y-99159580D02*
X121476190Y-99207200D01*
X121476190Y-99207200D02*
X121571428Y-99254819D01*
X121571428Y-99254819D02*
X121761904Y-99254819D01*
X121761904Y-99254819D02*
X121857142Y-99207200D01*
X120523809Y-99254819D02*
X120523809Y-98731009D01*
X120523809Y-98731009D02*
X120571428Y-98635771D01*
X120571428Y-98635771D02*
X120666666Y-98588152D01*
X120666666Y-98588152D02*
X120857142Y-98588152D01*
X120857142Y-98588152D02*
X120952380Y-98635771D01*
X120523809Y-99207200D02*
X120619047Y-99254819D01*
X120619047Y-99254819D02*
X120857142Y-99254819D01*
X120857142Y-99254819D02*
X120952380Y-99207200D01*
X120952380Y-99207200D02*
X120999999Y-99111961D01*
X120999999Y-99111961D02*
X120999999Y-99016723D01*
X120999999Y-99016723D02*
X120952380Y-98921485D01*
X120952380Y-98921485D02*
X120857142Y-98873866D01*
X120857142Y-98873866D02*
X120619047Y-98873866D01*
X120619047Y-98873866D02*
X120523809Y-98826247D01*
X120047618Y-99254819D02*
X120047618Y-98588152D01*
X120047618Y-98778628D02*
X119999999Y-98683390D01*
X119999999Y-98683390D02*
X119952380Y-98635771D01*
X119952380Y-98635771D02*
X119857142Y-98588152D01*
X119857142Y-98588152D02*
X119761904Y-98588152D01*
X119047618Y-99207200D02*
X119142856Y-99254819D01*
X119142856Y-99254819D02*
X119333332Y-99254819D01*
X119333332Y-99254819D02*
X119428570Y-99207200D01*
X119428570Y-99207200D02*
X119476189Y-99111961D01*
X119476189Y-99111961D02*
X119476189Y-98731009D01*
X119476189Y-98731009D02*
X119428570Y-98635771D01*
X119428570Y-98635771D02*
X119333332Y-98588152D01*
X119333332Y-98588152D02*
X119142856Y-98588152D01*
X119142856Y-98588152D02*
X119047618Y-98635771D01*
X119047618Y-98635771D02*
X118999999Y-98731009D01*
X118999999Y-98731009D02*
X118999999Y-98826247D01*
X118999999Y-98826247D02*
X119476189Y-98921485D01*
X118619046Y-99207200D02*
X118523808Y-99254819D01*
X118523808Y-99254819D02*
X118333332Y-99254819D01*
X118333332Y-99254819D02*
X118238094Y-99207200D01*
X118238094Y-99207200D02*
X118190475Y-99111961D01*
X118190475Y-99111961D02*
X118190475Y-99064342D01*
X118190475Y-99064342D02*
X118238094Y-98969104D01*
X118238094Y-98969104D02*
X118333332Y-98921485D01*
X118333332Y-98921485D02*
X118476189Y-98921485D01*
X118476189Y-98921485D02*
X118571427Y-98873866D01*
X118571427Y-98873866D02*
X118619046Y-98778628D01*
X118619046Y-98778628D02*
X118619046Y-98731009D01*
X118619046Y-98731009D02*
X118571427Y-98635771D01*
X118571427Y-98635771D02*
X118476189Y-98588152D01*
X118476189Y-98588152D02*
X118333332Y-98588152D01*
X118333332Y-98588152D02*
X118238094Y-98635771D01*
X117761903Y-99254819D02*
X117761903Y-98254819D01*
X117761903Y-98254819D02*
X117190475Y-99254819D01*
X117190475Y-99254819D02*
X117190475Y-98254819D01*
X120333333Y-112174819D02*
X120333333Y-112889104D01*
X120333333Y-112889104D02*
X120380952Y-113031961D01*
X120380952Y-113031961D02*
X120476190Y-113127200D01*
X120476190Y-113127200D02*
X120619047Y-113174819D01*
X120619047Y-113174819D02*
X120714285Y-113174819D01*
X119428571Y-112508152D02*
X119428571Y-113174819D01*
X119666666Y-112127200D02*
X119904761Y-112841485D01*
X119904761Y-112841485D02*
X119285714Y-112841485D01*
D11*
%TO.C,J4*%
X114925000Y-103510000D02*
X114925000Y-112420000D01*
X114925000Y-112420000D02*
X115925000Y-113420000D01*
X115925000Y-113420000D02*
X124075000Y-113420000D01*
X117750000Y-103510000D02*
X118500000Y-104500000D01*
X118500000Y-104500000D02*
X119250000Y-103510000D01*
X124075000Y-113420000D02*
X125075000Y-112420000D01*
X125075000Y-103510000D02*
X114925000Y-103510000D01*
X125075000Y-112420000D02*
X125075000Y-103510000D01*
%TD*%
D12*
X101600000Y-50800000D02*
X154940000Y-50800000D01*
X154940000Y-114300000D01*
X101600000Y-114300000D01*
X101600000Y-50800000D01*
M02*
